<?xml version="1.0" encoding="UTF-8" ?>
<!DOCTYPE svg PUBLIC "-//W3C//DTD SVG 1.1//EN" "http://www.w3.org/Graphics/SVG/1.1/DTD/svg11.dtd">
<svg width="1216pt" height="1216pt" viewBox="0 0 1216 1216" version="1.1" xmlns="http://www.w3.org/2000/svg">
<g id="#ffffffff">
</g>
<g id="#191919ff">
<path fill="#191919" opacity="1.00" d=" M 554.96 28.93 C 557.28 28.64 559.62 28.41 561.91 27.86 C 569.22 27.44 576.62 27.04 583.89 28.06 C 585.27 28.35 586.67 28.61 588.07 28.88 C 589.10 29.21 590.13 29.52 591.18 29.82 C 592.42 30.28 593.67 30.71 594.93 31.16 C 595.92 31.51 596.90 31.87 597.90 32.24 C 600.94 33.49 603.94 34.82 606.89 36.28 C 607.95 36.79 609.02 37.32 610.10 37.83 C 613.15 39.46 616.20 41.11 619.26 42.75 C 628.44 48.09 637.32 53.94 645.87 60.24 C 646.97 61.09 648.06 61.95 649.19 62.79 C 659.18 70.28 668.62 78.55 677.36 87.48 C 700.98 112.63 722.25 139.90 741.82 168.29 C 758.50 192.22 774.09 216.90 788.86 242.04 C 790.05 244.10 790.37 246.49 790.79 248.80 C 825.84 261.73 858.38 281.75 885.14 307.87 C 902.94 325.04 918.20 345.06 928.74 367.49 C 936.69 384.47 942.33 402.68 944.01 421.41 C 944.57 429.82 945.92 438.23 945.09 446.67 C 944.17 455.47 944.51 464.40 942.66 473.09 C 938.78 490.19 933.83 507.15 926.20 522.99 C 921.33 534.31 914.76 544.78 908.25 555.20 C 900.35 567.68 890.50 578.74 880.38 589.43 C 866.78 603.45 851.43 615.79 834.73 625.92 C 828.02 629.71 821.54 634.44 813.71 635.49 C 802.46 638.48 790.71 637.24 779.37 635.52 C 761.99 632.77 745.10 627.56 728.68 621.33 C 709.86 613.77 691.38 605.27 673.81 595.11 C 663.11 588.26 652.04 581.90 642.27 573.71 C 627.92 561.70 615.38 547.55 604.89 532.06 C 597.04 520.75 591.29 508.15 586.13 495.43 C 578.54 476.62 574.21 456.64 571.65 436.57 C 567.49 399.87 571.32 361.38 588.20 328.12 C 594.20 315.71 602.43 304.59 611.15 293.99 C 610.53 285.22 614.01 276.84 614.34 268.12 C 614.85 255.74 615.20 243.31 614.11 230.96 C 611.84 212.51 606.93 193.96 596.64 178.28 C 583.43 156.82 564.08 140.20 544.75 124.44 C 540.55 121.28 536.54 117.80 532.01 115.12 C 530.92 114.30 529.57 114.52 528.46 115.12 C 517.90 119.93 507.19 124.43 496.91 129.82 C 507.19 125.29 517.31 120.31 527.97 116.73 C 530.29 115.85 532.41 117.53 534.33 118.61 C 554.43 131.66 572.40 148.05 587.09 167.00 C 591.14 173.36 596.69 178.76 599.71 185.76 C 602.38 191.44 605.35 197.02 607.17 203.05 C 610.15 213.01 613.12 223.09 613.86 233.51 C 614.51 241.67 614.43 249.87 614.12 258.05 C 614.01 261.81 613.44 265.56 612.32 269.16 C 611.37 264.00 611.46 258.74 610.82 253.56 C 608.95 238.07 605.79 222.65 600.16 208.06 C 594.56 193.04 586.07 178.72 573.83 168.17 C 566.08 162.23 558.88 155.52 550.45 150.51 C 535.34 141.33 517.89 134.96 500.01 135.59 C 494.31 135.63 488.77 137.17 483.09 137.46 C 480.19 137.53 477.68 139.15 475.18 140.42 C 472.08 142.09 468.87 143.54 465.89 145.41 C 463.28 143.81 460.62 146.33 457.94 145.66 C 456.52 144.93 455.28 143.92 453.95 143.07 C 453.06 141.33 452.14 139.61 451.21 137.89 C 448.38 132.23 446.46 126.18 444.85 120.06 C 443.09 111.81 442.86 103.17 444.79 94.92 C 446.73 84.43 450.67 74.01 458.08 66.14 C 463.51 60.66 470.19 56.64 477.00 53.11 C 480.23 51.55 483.54 50.18 486.84 48.78 C 488.27 48.28 489.69 47.76 491.13 47.26 C 492.39 46.79 493.66 46.34 494.93 45.85 C 497.31 44.97 499.70 44.09 502.11 43.25 C 503.38 42.80 504.66 42.36 505.94 41.89 C 506.91 41.57 507.89 41.25 508.88 40.93 C 509.90 40.60 510.91 40.26 511.93 39.91 C 512.91 39.58 513.90 39.26 514.89 38.94 C 520.52 37.15 526.22 35.61 531.88 33.91 C 533.25 33.62 534.63 33.34 536.00 33.01 C 537.30 32.63 538.63 32.29 539.95 31.90 C 544.92 30.77 549.95 29.91 554.96 28.93 M 560.54 32.77 C 536.61 36.13 513.50 43.63 490.95 52.09 C 479.77 56.43 468.33 61.63 460.18 70.73 C 465.25 68.82 470.97 67.33 476.23 69.45 C 488.32 74.28 499.78 80.80 509.77 89.17 C 517.32 95.27 524.51 101.80 531.53 108.49 C 556.12 127.25 580.67 147.04 598.71 172.46 C 609.22 187.77 615.36 205.75 618.22 224.01 C 620.37 236.21 619.47 248.65 619.53 260.97 C 619.70 270.39 617.33 279.58 616.18 288.88 C 629.54 275.19 645.14 263.59 662.50 255.48 C 679.29 247.86 696.86 241.82 715.02 238.52 C 723.26 236.88 731.70 237.54 740.03 237.52 C 755.70 238.28 770.80 242.92 785.94 246.68 C 783.05 240.55 779.15 234.99 775.81 229.12 C 768.89 217.81 761.99 206.47 754.58 195.47 C 732.49 161.81 708.86 129.02 681.81 99.13 C 671.37 87.96 660.59 77.02 648.38 67.76 C 634.56 57.12 619.83 47.60 604.14 39.96 C 596.13 36.41 587.93 32.31 578.97 32.29 C 572.82 32.30 566.66 32.13 560.54 32.77 M 723.36 249.57 C 710.14 250.87 696.71 252.88 684.65 258.75 C 665.30 268.26 647.39 280.38 629.82 292.81 C 624.28 296.62 619.28 301.29 613.12 304.14 C 610.56 305.55 607.47 306.29 605.51 308.57 C 588.39 331.74 578.46 359.87 575.80 388.47 C 573.87 398.51 574.59 408.79 574.57 418.95 C 576.37 441.85 579.95 464.79 587.67 486.51 C 599.81 521.40 621.45 553.57 651.51 575.45 C 677.59 593.53 706.13 608.02 735.89 618.98 C 742.08 621.15 748.27 624.08 755.00 623.77 C 772.05 623.28 788.90 619.21 804.61 612.65 C 828.80 603.24 850.42 588.07 869.14 570.24 C 883.84 554.94 895.41 536.91 904.73 517.91 C 919.82 486.66 929.39 453.02 936.01 419.04 C 936.74 415.04 938.03 410.96 937.21 406.87 C 932.46 383.87 922.59 362.06 909.12 342.87 C 890.16 315.79 864.87 293.51 836.83 276.20 C 821.31 267.11 805.29 258.47 788.06 253.12 C 766.76 249.30 744.96 248.25 723.36 249.57 Z" />
<path fill="#191919" opacity="1.00" d=" M 872.23 160.73 C 879.10 155.71 885.45 149.94 890.27 142.87 C 891.89 147.30 893.37 151.82 895.74 155.93 C 896.02 156.53 896.58 157.72 896.86 158.31 L 897.23 158.61 C 897.83 160.07 898.48 161.51 899.18 162.94 C 899.68 163.99 900.22 165.04 900.75 166.09 C 905.32 174.83 910.45 183.25 915.69 191.61 L 916.63 191.67 C 916.54 192.11 916.35 192.99 916.26 193.43 L 917.53 193.40 L 917.39 194.58 L 918.02 194.73 C 918.55 196.04 919.38 197.17 920.37 198.18 C 920.35 198.51 920.30 199.17 920.27 199.50 L 921.52 199.41 L 921.39 200.63 L 922.11 200.62 C 922.45 202.04 923.06 203.38 924.47 204.05 C 924.41 204.42 924.30 205.15 924.24 205.52 L 925.55 205.38 L 925.39 206.64 L 926.12 206.59 C 926.42 208.12 927.12 209.47 928.65 210.12 L 928.27 210.78 C 923.13 206.95 918.60 202.40 913.95 198.00 C 900.20 185.40 886.21 173.07 872.23 160.73 Z" />
<path fill="#191919" opacity="1.00" d=" M 353.15 310.18 C 361.30 304.54 371.42 303.44 380.94 301.85 C 392.65 300.74 404.38 302.23 416.08 302.76 C 424.09 303.74 432.25 304.45 439.90 307.14 C 442.05 307.74 443.58 309.40 444.98 311.03 C 442.71 312.53 440.25 313.86 437.51 314.16 C 421.42 316.32 405.17 316.24 389.01 317.40 C 384.39 317.61 379.43 316.94 375.21 319.27 C 368.19 322.87 362.39 328.36 356.99 334.01 C 347.41 344.34 339.43 356.01 331.99 367.93 C 328.96 372.94 326.28 378.17 322.85 382.93 C 321.93 380.01 321.06 377.03 321.00 373.95 C 320.76 362.11 324.28 350.56 328.76 339.73 C 334.24 328.08 342.40 317.42 353.15 310.18 Z" />
<path fill="#191919" opacity="1.00" d=" M 143.27 571.40 C 145.27 571.65 147.66 571.13 149.24 572.69 C 152.16 575.05 155.74 576.79 157.59 580.23 C 162.89 588.68 164.97 599.15 164.12 609.01 C 161.83 616.09 160.04 623.84 154.43 629.18 C 151.66 625.90 151.91 621.38 150.59 617.50 C 149.40 612.23 146.17 607.48 146.24 601.94 C 146.09 597.20 144.08 592.72 144.27 587.95 C 144.47 582.40 142.85 576.96 143.27 571.40 Z" />
<path fill="#191919" opacity="1.00" d=" M 507.89 614.69 L 508.95 615.11 C 509.10 615.17 509.38 615.31 509.52 615.38 C 507.55 620.75 506.90 626.48 505.14 631.91 C 500.73 646.45 492.06 659.68 480.51 669.55 C 479.00 671.23 476.75 670.37 474.89 669.94 C 459.42 665.54 443.88 660.30 430.51 651.11 C 427.04 670.11 420.82 689.05 409.27 704.75 C 394.62 698.50 379.93 692.29 365.78 684.96 C 359.65 681.86 353.65 678.42 348.34 674.03 C 345.03 680.60 342.39 687.49 338.99 694.02 C 334.85 702.06 330.86 710.46 324.28 716.85 C 305.58 710.12 286.55 703.35 270.12 691.89 C 265.08 707.85 262.03 724.35 259.22 740.83 C 256.43 740.71 253.54 740.59 251.09 739.11 C 234.60 730.16 217.77 721.80 201.79 711.93 C 197.26 718.46 197.13 726.77 193.17 733.52 C 192.42 730.81 190.67 728.11 191.47 725.21 C 192.36 720.43 193.66 715.74 195.11 711.11 C 195.77 709.44 196.44 707.78 197.13 706.12 C 198.02 704.61 198.93 703.10 199.83 701.60 C 200.26 701.55 201.12 701.43 201.55 701.37 L 201.32 702.54 L 202.54 702.36 L 202.64 703.15 C 203.20 703.43 204.31 703.99 204.87 704.27 C 206.26 705.28 207.63 706.30 209.00 707.35 C 209.25 707.40 209.75 707.51 210.00 707.56 C 212.81 709.63 215.87 711.34 218.98 712.93 C 222.27 714.63 225.53 716.43 229.02 717.71 C 229.55 717.97 230.60 718.50 231.13 718.77 C 232.77 719.46 234.42 720.16 236.10 720.76 C 237.34 721.27 238.58 721.75 239.83 722.26 C 241.60 722.80 243.35 723.39 245.11 723.95 C 247.12 724.52 249.14 725.07 251.15 725.67 C 254.23 710.04 257.30 694.35 262.01 679.11 C 262.87 676.77 263.78 674.45 264.72 672.15 C 265.16 672.23 266.05 672.39 266.49 672.47 C 276.92 682.01 288.72 690.00 301.03 696.91 C 301.52 697.17 302.50 697.67 302.99 697.92 C 305.93 699.44 308.91 700.89 311.89 702.33 C 313.97 703.17 316.04 704.04 318.14 704.84 C 318.80 705.12 319.46 705.40 320.13 705.69 C 329.01 690.30 336.71 674.10 341.86 657.06 C 346.09 658.36 349.02 662.05 352.79 664.26 C 363.48 671.74 374.62 678.59 386.09 684.84 C 390.59 687.37 395.23 689.67 399.85 692.00 C 402.41 693.21 404.93 695.01 407.91 694.72 C 415.46 678.40 421.04 661.10 423.17 643.21 C 427.02 643.56 430.29 646.01 433.87 647.31 C 436.62 648.48 439.35 649.69 442.13 650.81 C 445.69 652.37 449.29 653.82 452.90 655.25 C 454.31 655.76 455.72 656.30 457.14 656.84 C 459.78 657.90 462.45 658.87 465.15 659.81 C 466.14 660.17 467.14 660.54 468.14 660.91 C 469.14 661.23 470.14 661.56 471.15 661.89 C 473.05 662.56 474.98 663.16 476.95 663.67 C 481.06 660.98 485.23 658.19 488.26 654.24 C 495.20 646.04 498.69 635.73 503.16 626.12 C 504.31 623.35 505.51 620.60 506.70 617.85 C 507.00 617.06 507.60 615.48 507.89 614.69 Z" />
<path fill="#191919" opacity="1.00" d=" M 773.99 813.71 C 783.52 811.46 792.83 808.40 802.32 806.02 C 798.93 817.66 790.91 827.12 783.26 836.24 C 763.70 858.70 740.98 878.12 717.76 896.68 C 704.71 907.70 693.34 920.58 682.90 934.07 C 670.83 950.02 660.54 967.50 654.17 986.53 C 650.24 977.91 644.99 969.98 639.55 962.26 C 632.79 951.66 625.02 941.74 616.59 932.43 C 608.04 922.80 598.88 913.67 588.82 905.64 C 587.39 904.47 586.04 903.22 584.57 902.13 L 584.48 901.82 C 582.77 900.61 581.12 899.33 579.42 898.13 L 579.48 897.86 C 577.83 896.60 576.21 895.30 574.52 894.11 L 574.48 893.26 C 574.10 893.33 573.33 893.48 572.95 893.55 C 572.52 892.29 571.66 891.54 570.38 891.29 L 570.45 890.35 C 569.94 890.47 568.92 890.70 568.41 890.81 L 568.59 889.41 C 568.07 889.44 567.02 889.50 566.50 889.53 L 566.53 888.21 C 566.05 888.31 565.09 888.52 564.61 888.62 L 564.71 887.23 L 563.27 887.63 L 563.53 886.24 C 563.05 886.37 562.10 886.62 561.62 886.74 L 561.44 885.27 C 560.98 885.39 560.07 885.61 559.61 885.73 L 559.50 884.30 C 559.03 884.39 558.09 884.58 557.62 884.68 L 557.49 883.29 C 557.02 883.38 556.08 883.57 555.61 883.66 L 555.48 882.29 C 555.02 882.39 554.11 882.58 553.65 882.67 L 553.48 881.34 C 553.03 881.42 552.14 881.57 551.69 881.65 L 551.47 880.44 C 551.12 880.45 550.42 880.47 550.07 880.48 C 548.73 879.69 547.37 878.97 546.01 878.26 C 544.06 877.48 542.10 876.72 540.18 875.90 C 538.51 875.20 536.84 874.52 535.18 873.85 C 533.48 873.25 531.80 872.64 530.11 872.06 C 529.10 871.68 528.09 871.30 527.10 870.92 C 526.09 870.59 525.09 870.28 524.09 869.98 C 523.09 869.63 522.10 869.28 521.12 868.92 C 520.12 868.59 519.12 868.26 518.12 867.95 C 517.10 867.63 516.08 867.31 515.07 866.99 C 512.75 866.33 510.43 865.69 508.14 865.01 C 507.07 864.68 506.02 864.35 504.97 864.03 C 503.65 863.67 502.33 863.38 501.03 863.03 C 499.70 862.67 498.37 862.37 497.06 862.00 C 495.72 861.67 494.40 861.40 493.07 861.11 C 492.24 860.83 491.42 860.57 490.62 860.30 C 485.06 857.80 478.95 857.12 473.06 855.80 C 460.97 853.57 448.83 851.57 436.64 849.98 C 455.07 848.57 473.58 848.83 492.03 847.62 C 522.72 846.34 553.38 844.19 584.00 841.67 C 647.81 836.37 711.67 828.80 773.99 813.71 Z" />
</g>
<g id="#292929ff">
<path fill="#292929" opacity="1.00" d=" M 560.54 32.77 C 566.66 32.13 572.82 32.30 578.97 32.29 C 587.93 32.31 596.13 36.41 604.14 39.96 C 619.83 47.60 634.56 57.12 648.38 67.76 C 660.59 77.02 671.37 87.96 681.81 99.13 C 708.86 129.02 732.49 161.81 754.58 195.47 C 761.99 206.47 768.89 217.81 775.81 229.12 C 779.15 234.99 783.05 240.55 785.94 246.68 C 770.80 242.92 755.70 238.28 740.03 237.52 C 731.70 237.54 723.26 236.88 715.02 238.52 C 696.86 241.82 679.29 247.86 662.50 255.48 C 645.14 263.59 629.54 275.19 616.18 288.88 C 617.33 279.58 619.70 270.39 619.53 260.97 C 619.47 248.65 620.37 236.21 618.22 224.01 C 615.36 205.75 609.22 187.77 598.71 172.46 C 580.67 147.04 556.12 127.25 531.53 108.49 C 524.51 101.80 517.32 95.27 509.77 89.17 C 499.78 80.80 488.32 74.28 476.23 69.45 C 470.97 67.33 465.25 68.82 460.18 70.73 C 468.33 61.63 479.77 56.43 490.95 52.09 C 513.50 43.63 536.61 36.13 560.54 32.77 Z" />
<path fill="#292929" opacity="1.00" d=" M 723.36 249.57 C 744.96 248.25 766.76 249.30 788.06 253.12 C 805.29 258.47 821.31 267.11 836.83 276.20 C 864.87 293.51 890.16 315.79 909.12 342.87 C 922.59 362.06 932.46 383.87 937.21 406.87 C 938.03 410.96 936.74 415.04 936.01 419.04 C 929.39 453.02 919.82 486.66 904.73 517.91 C 895.41 536.91 883.84 554.94 869.14 570.24 C 850.42 588.07 828.80 603.24 804.61 612.65 C 788.90 619.21 772.05 623.28 755.00 623.77 C 748.27 624.08 742.08 621.15 735.89 618.98 C 706.13 608.02 677.59 593.53 651.51 575.45 C 621.45 553.57 599.81 521.40 587.67 486.51 C 579.95 464.79 576.37 441.85 574.57 418.95 C 574.59 408.79 573.87 398.51 575.80 388.47 C 578.46 359.87 588.39 331.74 605.51 308.57 C 607.47 306.29 610.56 305.55 613.12 304.14 C 619.28 301.29 624.28 296.62 629.82 292.81 C 647.39 280.38 665.30 268.26 684.65 258.75 C 696.71 252.88 710.14 250.87 723.36 249.57 M 740.27 287.17 C 712.20 290.37 686.25 305.73 668.51 327.50 C 642.83 358.46 632.20 400.39 636.52 440.06 C 637.79 456.27 642.96 472.02 650.64 486.30 C 659.38 502.79 671.11 517.55 684.24 530.76 C 705.27 551.68 730.06 569.23 757.75 580.14 C 773.02 585.83 789.95 590.13 806.14 585.94 C 830.16 577.74 851.38 562.08 867.33 542.43 C 888.63 516.38 900.95 483.47 903.41 450.01 C 904.59 428.48 903.13 406.41 895.57 386.05 C 884.69 356.15 862.91 330.97 836.62 313.41 C 808.51 294.68 774.24 283.42 740.27 287.17 Z" />
<path fill="#292929" opacity="1.00" d=" M 713.54 302.52 C 732.47 294.12 753.86 292.54 774.15 295.91 C 788.27 298.45 802.34 302.54 814.96 309.45 C 808.34 310.00 801.89 308.16 795.34 307.59 C 775.17 305.88 754.55 305.82 734.79 310.75 C 721.66 314.27 708.79 320.31 699.26 330.22 C 684.32 344.42 673.55 362.41 665.19 381.10 C 656.41 401.15 649.65 422.15 645.72 443.69 C 645.00 443.18 644.29 442.67 643.58 442.16 C 643.50 435.77 642.37 429.43 642.59 423.03 C 643.10 410.88 643.75 398.65 646.83 386.82 C 651.93 366.97 661.32 348.18 674.39 332.36 C 684.81 319.48 698.24 308.97 713.54 302.52 Z" />
<path fill="#292929" opacity="1.00" d=" M 895.69 438.88 C 896.03 441.68 896.37 444.48 896.55 447.30 C 894.29 478.03 883.88 508.53 865.13 533.17 C 854.42 546.84 841.04 558.41 826.04 567.17 C 815.01 573.36 802.96 579.24 789.97 578.64 C 770.95 578.16 752.88 570.74 736.47 561.61 C 727.17 556.19 718.06 550.30 709.81 543.37 C 709.17 542.13 708.60 540.86 708.03 539.60 C 727.97 548.69 748.68 557.15 770.67 559.43 C 783.31 560.69 796.71 560.07 808.19 554.12 C 825.34 545.21 839.40 531.39 851.31 516.36 C 869.83 492.92 884.38 466.48 895.69 438.88 Z" />
</g>
<g id="#579529ff">
<path fill="#579529" opacity="1.00" d=" M 677.36 87.48 C 684.25 87.58 691.33 86.62 698.10 88.16 C 700.74 88.38 703.47 88.27 706.03 89.10 C 712.38 90.00 718.79 90.64 725.06 92.05 C 726.74 92.37 728.44 92.67 730.13 93.05 C 732.10 93.33 734.10 93.54 736.06 93.99 C 737.71 94.33 739.40 94.62 741.06 94.99 C 745.68 96.12 750.37 96.92 755.00 98.00 C 756.35 98.34 757.72 98.67 759.08 99.03 C 769.47 101.37 779.75 104.20 790.02 107.02 C 792.35 107.70 794.70 108.34 797.04 109.02 C 799.36 109.70 801.69 110.34 804.02 111.02 C 808.33 112.42 812.64 113.81 817.01 115.00 C 818.01 115.33 819.02 115.67 820.05 116.01 C 821.06 116.35 822.07 116.69 823.10 117.04 C 827.11 118.28 831.08 119.62 835.04 121.01 C 837.05 121.66 839.06 122.33 841.07 123.00 C 857.94 128.88 874.58 135.39 891.18 141.94 C 891.76 143.61 892.34 145.28 892.89 146.97 C 893.92 149.93 895.05 152.87 895.74 155.93 C 893.37 151.82 891.89 147.30 890.27 142.87 C 885.45 149.94 879.10 155.71 872.23 160.73 C 886.21 173.07 900.20 185.40 913.95 198.00 C 918.60 202.40 923.13 206.95 928.27 210.78 C 931.57 213.26 933.02 217.32 935.61 220.44 C 944.76 234.01 953.63 247.76 962.15 261.74 C 967.76 271.51 974.21 280.88 978.77 291.20 C 978.92 291.29 979.22 291.45 979.37 291.54 C 985.40 302.45 990.82 313.69 996.24 324.92 C 997.12 327.28 998.13 329.58 999.23 331.86 C 1000.84 335.90 1002.66 339.86 1004.26 343.92 C 1004.87 345.59 1005.53 347.26 1006.21 348.93 C 1006.85 350.60 1007.54 352.27 1008.26 353.93 C 1008.55 354.95 1008.85 355.97 1009.18 356.99 C 1009.53 357.97 1009.89 358.95 1010.28 359.92 C 1010.58 360.92 1010.91 361.93 1011.25 362.94 C 1011.78 364.62 1012.35 366.29 1012.92 367.96 C 1014.20 371.56 1015.05 375.29 1016.16 378.95 C 1016.50 379.96 1016.87 380.97 1017.24 381.99 C 1017.78 384.68 1018.44 387.35 1019.22 389.99 C 1019.84 392.62 1020.46 395.26 1020.96 397.92 C 1021.33 399.57 1021.58 401.24 1021.89 402.91 C 1022.25 404.24 1022.55 405.58 1022.90 406.93 C 1023.33 408.96 1023.65 411.03 1024.15 413.05 C 1024.45 414.73 1024.74 416.43 1025.19 418.09 C 1025.78 422.10 1026.39 426.10 1027.22 430.07 C 1027.92 434.41 1028.32 438.80 1029.22 443.10 C 1029.63 448.04 1030.70 452.89 1030.83 457.86 C 1032.12 463.78 1032.55 469.83 1032.81 475.87 C 1033.96 479.08 1033.40 482.56 1033.74 485.90 C 1034.78 488.82 1034.46 491.94 1034.59 494.99 C 1034.64 498.35 1036.00 501.65 1035.35 505.04 C 1017.01 593.66 993.98 681.37 965.52 767.28 C 963.71 771.68 962.83 776.40 960.80 780.71 C 958.48 787.39 956.54 794.21 953.79 800.73 C 948.89 815.22 943.45 829.53 937.80 843.73 C 936.10 848.85 934.04 853.84 931.81 858.75 C 929.57 864.46 927.37 870.19 924.83 875.77 C 923.97 878.15 922.89 880.44 921.81 882.74 C 918.07 891.86 914.02 900.85 909.80 909.76 C 908.44 913.56 906.48 917.10 904.71 920.72 C 903.73 922.73 902.73 924.75 901.82 926.80 C 901.24 928.78 900.19 930.55 899.04 932.24 C 897.13 937.29 894.43 941.98 892.01 946.80 C 890.89 948.41 889.97 950.15 889.13 951.93 C 877.73 974.21 865.13 995.87 852.02 1017.19 C 847.22 1025.21 841.84 1032.86 837.03 1040.87 C 836.82 1041.13 836.41 1041.65 836.20 1041.90 C 833.29 1045.44 830.90 1049.37 828.39 1053.20 C 788.18 1004.58 738.17 964.37 682.90 934.07 C 693.34 920.58 704.71 907.70 717.76 896.68 C 740.98 878.12 763.70 858.70 783.26 836.24 C 790.91 827.12 798.93 817.66 802.32 806.02 C 792.83 808.40 783.52 811.46 773.99 813.71 C 711.67 828.80 647.81 836.37 584.00 841.67 C 553.38 844.19 522.72 846.34 492.03 847.62 C 473.58 848.83 455.07 848.57 436.64 849.98 C 430.37 850.43 424.25 848.75 418.03 848.45 C 411.67 848.11 405.39 846.96 399.04 846.59 C 387.69 846.26 376.39 844.96 365.06 844.41 C 356.68 844.59 348.37 842.98 339.99 843.40 C 331.02 843.79 322.11 842.47 313.17 841.97 C 298.61 840.13 284.12 836.69 270.77 830.49 C 264.92 827.96 259.44 824.70 253.72 821.94 C 231.82 808.52 215.71 787.39 204.35 764.67 C 199.89 754.58 195.49 744.35 193.17 733.52 C 197.13 726.77 197.26 718.46 201.79 711.93 C 217.77 721.80 234.60 730.16 251.09 739.11 C 253.54 740.59 256.43 740.71 259.22 740.83 C 262.03 724.35 265.08 707.85 270.12 691.89 C 286.55 703.35 305.58 710.12 324.28 716.85 C 330.86 710.46 334.85 702.06 338.99 694.02 C 342.39 687.49 345.03 680.60 348.34 674.03 C 353.65 678.42 359.65 681.86 365.78 684.96 C 379.93 692.29 394.62 698.50 409.27 704.75 C 420.82 689.05 427.04 670.11 430.51 651.11 C 443.88 660.30 459.42 665.54 474.89 669.94 C 476.75 670.37 479.00 671.23 480.51 669.55 C 492.06 659.68 500.73 646.45 505.14 631.91 C 506.90 626.48 507.55 620.75 509.52 615.38 C 509.38 615.31 509.10 615.17 508.95 615.11 C 508.10 612.29 511.10 609.20 511.08 606.09 C 510.05 606.28 509.04 606.48 508.03 606.69 C 506.52 610.65 503.82 613.97 501.54 617.49 C 498.89 621.29 496.79 625.43 494.04 629.16 C 488.71 638.09 482.99 647.10 474.89 653.80 C 467.91 652.48 461.36 649.52 454.65 647.28 C 447.42 644.86 440.69 641.28 433.69 638.33 C 428.23 636.01 423.64 631.57 417.56 630.84 C 414.33 648.44 410.17 666.15 401.96 682.18 C 400.12 683.58 397.89 681.53 396.15 680.81 C 375.96 670.83 357.07 658.20 340.01 643.52 C 339.21 643.36 338.41 643.20 337.62 643.06 C 334.04 653.29 331.33 663.86 326.82 673.75 C 325.94 676.13 324.90 678.45 323.84 680.77 C 322.10 684.93 319.83 688.84 317.79 692.86 C 317.04 693.76 316.27 694.64 315.50 695.54 C 313.59 694.00 311.50 692.71 309.32 691.61 C 293.26 682.73 277.68 672.71 263.98 660.45 C 262.94 660.32 261.90 660.21 260.86 660.10 C 257.82 666.15 255.32 672.43 252.77 678.70 C 248.74 690.10 245.51 701.88 244.31 713.94 C 227.98 708.22 213.66 698.30 199.51 688.59 C 198.29 687.70 196.32 686.31 195.02 687.85 C 191.85 692.54 189.07 697.52 186.79 702.71 C 186.17 704.38 185.48 706.04 184.77 707.70 C 181.66 716.83 179.90 726.42 179.30 736.04 C 179.05 737.80 178.74 739.55 178.39 741.30 C 168.44 731.28 158.48 721.16 150.33 709.58 C 138.92 694.09 129.54 677.09 122.80 659.06 C 118.14 645.50 113.87 631.50 113.83 617.03 C 114.32 602.24 118.34 587.83 118.95 573.05 C 120.29 563.10 119.59 553.03 119.75 543.02 C 119.96 536.98 118.47 531.04 118.68 525.00 C 118.34 519.45 121.39 514.57 123.67 509.75 C 126.54 503.88 131.45 499.47 135.92 494.86 C 138.70 491.32 141.68 487.93 145.11 485.00 C 154.65 477.28 162.28 467.49 171.92 459.89 C 184.49 447.47 196.99 434.96 209.46 422.44 C 213.01 418.70 216.99 415.34 220.10 411.20 C 223.24 407.08 227.52 404.00 230.60 399.82 C 232.70 396.88 235.51 394.57 237.90 391.88 C 245.37 382.80 253.12 373.95 260.59 364.86 C 268.11 353.91 273.06 341.51 278.43 329.44 C 283.81 317.78 288.22 305.63 294.34 294.34 C 294.51 293.82 294.86 292.79 295.04 292.27 C 297.81 287.97 299.92 283.25 303.07 279.20 C 309.09 271.32 317.90 266.40 326.03 261.02 C 331.68 257.61 337.38 254.27 343.22 251.18 C 345.55 249.86 347.86 248.48 350.21 247.19 C 363.42 239.35 377.63 232.48 388.53 221.42 C 398.92 209.50 408.20 196.58 419.43 185.40 C 427.85 174.77 438.57 166.31 449.12 157.90 C 453.95 154.42 458.75 150.87 463.93 147.91 C 464.55 147.05 465.21 146.22 465.89 145.41 C 468.87 143.54 472.08 142.09 475.18 140.42 C 477.68 139.15 480.19 137.53 483.09 137.46 C 488.77 137.17 494.31 135.63 500.01 135.59 C 517.89 134.96 535.34 141.33 550.45 150.51 C 558.88 155.52 566.08 162.23 573.83 168.17 C 586.07 178.72 594.56 193.04 600.16 208.06 C 605.79 222.65 608.95 238.07 610.82 253.56 C 611.46 258.74 611.37 264.00 612.32 269.16 C 613.44 265.56 614.01 261.81 614.12 258.05 C 614.43 249.87 614.51 241.67 613.86 233.51 C 613.12 223.09 610.15 213.01 607.17 203.05 C 605.35 197.02 602.38 191.44 599.71 185.76 C 596.69 178.76 591.14 173.36 587.09 167.00 C 572.40 148.05 554.43 131.66 534.33 118.61 C 532.41 117.53 530.29 115.85 527.97 116.73 C 517.31 120.31 507.19 125.29 496.91 129.82 C 507.19 124.43 517.90 119.93 528.46 115.12 C 529.57 114.52 530.92 114.30 532.01 115.12 C 536.54 117.80 540.55 121.28 544.75 124.44 C 564.08 140.20 583.43 156.82 596.64 178.28 C 606.93 193.96 611.84 212.51 614.11 230.96 C 615.20 243.31 614.85 255.74 614.34 268.12 C 614.01 276.84 610.53 285.22 611.15 293.99 C 602.43 304.59 594.20 315.71 588.20 328.12 C 571.32 361.38 567.49 399.87 571.65 436.57 C 574.21 456.64 578.54 476.62 586.13 495.43 C 591.29 508.15 597.04 520.75 604.89 532.06 C 615.38 547.55 627.92 561.70 642.27 573.71 C 652.04 581.90 663.11 588.26 673.81 595.11 C 691.38 605.27 709.86 613.77 728.68 621.33 C 745.10 627.56 761.99 632.77 779.37 635.52 C 790.71 637.24 802.46 638.48 813.71 635.49 C 821.54 634.44 828.02 629.71 834.73 625.92 C 851.43 615.79 866.78 603.45 880.38 589.43 C 890.50 578.74 900.35 567.68 908.25 555.20 C 914.76 544.78 921.33 534.31 926.20 522.99 C 933.83 507.15 938.78 490.19 942.66 473.09 C 944.51 464.40 944.17 455.47 945.09 446.67 C 945.92 438.23 944.57 429.82 944.01 421.41 C 942.33 402.68 936.69 384.47 928.74 367.49 C 918.20 345.06 902.94 325.04 885.14 307.87 C 858.38 281.75 825.84 261.73 790.79 248.80 C 790.37 246.49 790.05 244.10 788.86 242.04 C 774.09 216.90 758.50 192.22 741.82 168.29 C 722.25 139.90 700.98 112.63 677.36 87.48 M 353.15 310.18 C 342.40 317.42 334.24 328.08 328.76 339.73 C 324.28 350.56 320.76 362.11 321.00 373.95 C 321.06 377.03 321.93 380.01 322.85 382.93 C 326.28 378.17 328.96 372.94 331.99 367.93 C 339.43 356.01 347.41 344.34 356.99 334.01 C 362.39 328.36 368.19 322.87 375.21 319.27 C 379.43 316.94 384.39 317.61 389.01 317.40 C 405.17 316.24 421.42 316.32 437.51 314.16 C 440.25 313.86 442.71 312.53 444.98 311.03 C 443.58 309.40 442.05 307.74 439.90 307.14 C 432.25 304.45 424.09 303.74 416.08 302.76 C 404.38 302.23 392.65 300.74 380.94 301.85 C 371.42 303.44 361.30 304.54 353.15 310.18 M 143.27 571.40 C 142.85 576.96 144.47 582.40 144.27 587.95 C 144.08 592.72 146.09 597.20 146.24 601.94 C 146.17 607.48 149.40 612.23 150.59 617.50 C 151.91 621.38 151.66 625.90 154.43 629.18 C 160.04 623.84 161.83 616.09 164.12 609.01 C 164.97 599.15 162.89 588.68 157.59 580.23 C 155.74 576.79 152.16 575.05 149.24 572.69 C 147.66 571.13 145.27 571.65 143.27 571.40 Z" />
</g>
<g id="#636363ff">
<path fill="#636363" opacity="1.00" d=" M 740.27 287.17 C 774.24 283.42 808.51 294.68 836.62 313.41 C 862.91 330.97 884.69 356.15 895.57 386.05 C 903.13 406.41 904.59 428.48 903.41 450.01 C 900.95 483.47 888.63 516.38 867.33 542.43 C 851.38 562.08 830.16 577.74 806.14 585.94 C 789.95 590.13 773.02 585.83 757.75 580.14 C 730.06 569.23 705.27 551.68 684.24 530.76 C 671.11 517.55 659.38 502.79 650.64 486.30 C 642.96 472.02 637.79 456.27 636.52 440.06 C 632.20 400.39 642.83 358.46 668.51 327.50 C 686.25 305.73 712.20 290.37 740.27 287.17 M 713.54 302.52 C 698.24 308.97 684.81 319.48 674.39 332.36 C 661.32 348.18 651.93 366.97 646.83 386.82 C 643.75 398.65 643.10 410.88 642.59 423.03 C 642.37 429.43 643.50 435.77 643.58 442.16 C 646.66 469.14 660.65 493.57 678.13 513.84 C 687.68 524.67 697.99 535.04 709.81 543.37 C 718.06 550.30 727.17 556.19 736.47 561.61 C 752.88 570.74 770.95 578.16 789.97 578.64 C 802.96 579.24 815.01 573.36 826.04 567.17 C 841.04 558.41 854.42 546.84 865.13 533.17 C 883.88 508.53 894.29 478.03 896.55 447.30 C 898.45 439.58 896.27 431.76 896.41 423.97 C 895.35 410.99 893.01 397.98 888.06 385.88 C 875.92 354.53 851.16 329.11 822.04 312.90 C 819.71 311.73 817.62 309.73 814.96 309.45 C 802.34 302.54 788.27 298.45 774.15 295.91 C 753.86 292.54 732.47 294.12 713.54 302.52 Z" />
<path fill="#636363" opacity="1.00" d=" M 253.72 821.94 C 259.44 824.70 264.92 827.96 270.77 830.49 C 284.12 836.69 298.61 840.13 313.17 841.97 C 322.11 842.47 331.02 843.79 339.99 843.40 C 348.37 842.98 356.68 844.59 365.06 844.41 C 376.39 844.96 387.69 846.26 399.04 846.59 C 405.39 846.96 411.67 848.11 418.03 848.45 C 424.25 848.75 430.37 850.43 436.64 849.98 C 448.83 851.57 460.97 853.57 473.06 855.80 C 478.95 857.12 485.06 857.80 490.62 860.30 C 486.26 860.28 482.16 858.71 477.92 857.98 C 434.47 849.32 390.17 846.29 346.02 844.25 C 336.67 844.07 327.33 843.68 318.00 843.17 C 296.24 841.47 274.78 835.04 256.07 823.75 C 255.26 823.16 254.48 822.56 253.72 821.94 Z" />
</g>
<g id="#363636ff">
<path fill="#363636" opacity="1.00" d=" M 734.79 310.75 C 754.55 305.82 775.17 305.88 795.34 307.59 C 801.89 308.16 808.34 310.00 814.96 309.45 C 817.62 309.73 819.71 311.73 822.04 312.90 C 851.16 329.11 875.92 354.53 888.06 385.88 C 893.01 397.98 895.35 410.99 896.41 423.97 C 896.27 431.76 898.45 439.58 896.55 447.30 C 896.37 444.48 896.03 441.68 895.69 438.88 C 884.38 466.48 869.83 492.92 851.31 516.36 C 839.40 531.39 825.34 545.21 808.19 554.12 C 796.71 560.07 783.31 560.69 770.67 559.43 C 748.68 557.15 727.97 548.69 708.03 539.60 C 708.60 540.86 709.17 542.13 709.81 543.37 C 697.99 535.04 687.68 524.67 678.13 513.84 C 660.65 493.57 646.66 469.14 643.58 442.16 C 644.29 442.67 645.00 443.18 645.72 443.69 C 649.65 422.15 656.41 401.15 665.19 381.10 C 673.55 362.41 684.32 344.42 699.26 330.22 C 708.79 320.31 721.66 314.27 734.79 310.75 Z" />
</g>
<g id="#d8ceaeff">
<path fill="#d8ceae" opacity="1.00" d=" M 588.82 905.64 C 598.88 913.67 608.04 922.80 616.59 932.43 C 625.02 941.74 632.79 951.66 639.55 962.26 C 644.99 969.98 650.24 977.91 654.17 986.53 C 660.54 967.50 670.83 950.02 682.90 934.07 C 738.17 964.37 788.18 1004.58 828.39 1053.20 C 830.90 1049.37 833.29 1045.44 836.20 1041.90 C 835.58 1044.69 833.86 1046.99 832.25 1049.29 C 821.99 1065.76 810.39 1081.34 798.99 1097.04 C 780.35 1122.15 760.70 1146.52 740.11 1170.07 C 736.29 1174.16 733.07 1178.88 728.55 1182.26 C 726.18 1162.87 722.80 1143.57 717.12 1124.86 C 705.89 1086.76 689.36 1050.40 670.26 1015.64 C 659.38 996.48 648.45 977.26 635.42 959.45 C 622.58 941.36 608.28 924.12 591.54 909.50 C 590.34 908.43 589.50 907.05 588.82 905.64 Z" />
</g>
</svg>
